<svg xmlns="http://www.w3.org/2000/svg" width="1920" height="1080" viewBox="0 0 1920 1080" role="img" aria-label="Placeholder layered diagram">
  <rect width="1920" height="1080" fill="#10151c"/>
  <g fill="#1e2733" stroke="#3a4656" stroke-width="3">
    <rect x="345" y="120" width="1230" height="170" rx="14"/>
    <rect x="345" y="330" width="1230" height="170" rx="14"/>
    <rect x="345" y="540" width="1230" height="170" rx="14"/>
  </g>
  <g fill="#56657a">
    <rect x="400" y="180" width="360" height="22" rx="11"/>
    <rect x="400" y="390" width="460" height="22" rx="11"/>
    <rect x="400" y="600" width="300" height="22" rx="11"/>
  </g>
  <!-- detail board: matches data-region="0.53,0.71,0.29,0.195" in the demos -->
  <rect x="1018" y="767" width="557" height="211" rx="14" fill="#2b3644" stroke="#8fa3bd" stroke-width="4"/>
  <g fill="#8fa3bd">
    <rect x="1060" y="810" width="120" height="120" rx="8"/>
    <rect x="1215" y="810" width="70" height="52" rx="6"/>
    <rect x="1215" y="878" width="70" height="52" rx="6"/>
    <rect x="1320" y="810" width="215" height="18" rx="9"/>
    <rect x="1320" y="848" width="165" height="18" rx="9"/>
    <rect x="1320" y="886" width="195" height="18" rx="9"/>
  </g>
  <rect x="345" y="767" width="633" height="211" rx="14" fill="#1e2733" stroke="#3a4656" stroke-width="3"/>
  <text x="661" y="884" text-anchor="middle" font-family="monospace" font-size="28" letter-spacing="6" fill="#8fa3bd">PLACEHOLDER DIAGRAM</text>
</svg>
